<svg xmlns="http://www.w3.org/2000/svg" xmlns:xlink="http://www.w3.org/1999/xlink" class="httpgd" width="1536.00" height="912.00" viewBox="0 0 1228.80 729.60">
<defs>
  <style type='text/css'><![CDATA[
    .httpgd line, .httpgd polyline, .httpgd polygon, .httpgd path, .httpgd rect, .httpgd circle {
      fill: none;
      stroke: #000000;
      stroke-linecap: round;
      stroke-linejoin: round;
      stroke-miterlimit: 10.00;
    }
  ]]></style>
<clipPath id="c0"><rect x="0.00" y="0.00" width="1228.80" height="729.60"/></clipPath>
<clipPath id="c1"><rect x="59.04" y="59.04" width="1139.52" height="597.12"/></clipPath>
<clipPath id="c2"><rect x="0.00" y="0.00" width="1228.80" height="729.60"/></clipPath>
<clipPath id="c3"><rect x="59.04" y="59.04" width="1139.52" height="597.12"/></clipPath>
</defs>
<rect width="100%" height="100%" style="stroke: none;fill: #FFFFFF;"/>
<g clip-path="url(#c0)">
</g><g clip-path="url(#c1)">
<polyline points="101.24,81.16 111.90,204.42 122.56,287.77 133.22,349.74 143.88,397.91 154.53,436.33 165.19,467.50 175.85,493.11 186.51,514.33 197.16,532.04 207.82,546.91 218.48,559.44 229.14,570.05 239.79,579.06 250.45,586.73 261.11,593.28 271.77,598.88 282.43,603.68 293.08,607.79 303.74,611.33 314.40,614.38 325.06,617.01 335.71,619.27 346.37,621.23 357.03,622.92 367.69,624.38 378.34,625.65 389.00,626.74 399.66,627.69 410.32,628.52 420.98,629.23 431.63,629.85 442.29,630.39 452.95,630.86 463.61,631.27 474.26,631.63 484.92,631.93 495.58,632.20 506.24,632.44 516.89,632.64 527.55,632.82 538.21,632.98 548.87,633.11 559.53,633.23 570.18,633.33 580.84,633.42 591.50,633.50 602.16,633.57 612.81,633.63 623.47,633.68 634.13,633.73 644.79,633.77 655.44,633.80 666.10,633.83 676.76,633.86 687.42,633.88 698.07,633.90 708.73,633.92 719.39,633.93 730.05,633.95 740.71,633.96 751.36,633.97 762.02,633.98 772.68,633.99 783.34,634.00 793.99,634.00 804.65,634.01 815.31,634.01 825.97,634.02 836.62,634.02 847.28,634.02 857.94,634.03 868.60,634.03 879.26,634.03 889.91,634.03 900.57,634.03 911.23,634.03 921.89,634.04 932.54,634.04 943.20,634.04 953.86,634.04 964.52,634.04 975.17,634.04 985.83,634.04 996.49,634.04 1007.15,634.04 1017.81,634.04 1028.46,634.04 1039.12,634.04 1049.78,634.04 1060.44,634.04 1071.09,634.04 1081.75,634.04 1092.41,634.04 1103.07,634.04 1113.72,634.04 1124.38,634.04 1135.04,634.04 1145.70,634.04 1156.36,634.04" style="stroke-width: 0.75;stroke: #A020F0;"/>
</g><g clip-path="url(#c2)">
<line x1="90.59" y1="656.16" x2="1156.36" y2="656.16" style="stroke-width: 0.75;"/>
<line x1="90.59" y1="656.16" x2="90.59" y2="663.36" style="stroke-width: 0.75;"/>
<line x1="303.74" y1="656.16" x2="303.74" y2="663.36" style="stroke-width: 0.75;"/>
<line x1="516.89" y1="656.16" x2="516.89" y2="663.36" style="stroke-width: 0.75;"/>
<line x1="730.05" y1="656.16" x2="730.05" y2="663.36" style="stroke-width: 0.75;"/>
<line x1="943.20" y1="656.16" x2="943.20" y2="663.36" style="stroke-width: 0.75;"/>
<line x1="1156.36" y1="656.16" x2="1156.36" y2="663.36" style="stroke-width: 0.75;"/>
<g><text x="90.59" y="682.08" text-anchor="middle" style="font-family: DejaVu Sans;font-size: 12.00px;" textLength="7.64px" lengthAdjust="spacingAndGlyphs">0</text></g>
<g><text x="303.74" y="682.08" text-anchor="middle" style="font-family: DejaVu Sans;font-size: 12.00px;" textLength="15.28px" lengthAdjust="spacingAndGlyphs">20</text></g>
<g><text x="516.89" y="682.08" text-anchor="middle" style="font-family: DejaVu Sans;font-size: 12.00px;" textLength="15.28px" lengthAdjust="spacingAndGlyphs">40</text></g>
<g><text x="730.05" y="682.08" text-anchor="middle" style="font-family: DejaVu Sans;font-size: 12.00px;" textLength="15.28px" lengthAdjust="spacingAndGlyphs">60</text></g>
<g><text x="943.20" y="682.08" text-anchor="middle" style="font-family: DejaVu Sans;font-size: 12.00px;" textLength="15.28px" lengthAdjust="spacingAndGlyphs">80</text></g>
<g><text x="1156.36" y="682.08" text-anchor="middle" style="font-family: DejaVu Sans;font-size: 12.00px;" textLength="22.92px" lengthAdjust="spacingAndGlyphs">100</text></g>
<line x1="59.04" y1="634.04" x2="59.04" y2="96.45" style="stroke-width: 0.75;"/>
<line x1="59.04" y1="634.04" x2="51.84" y2="634.04" style="stroke-width: 0.75;"/>
<line x1="59.04" y1="544.45" x2="51.84" y2="544.45" style="stroke-width: 0.75;"/>
<line x1="59.04" y1="454.85" x2="51.84" y2="454.85" style="stroke-width: 0.75;"/>
<line x1="59.04" y1="365.25" x2="51.84" y2="365.25" style="stroke-width: 0.75;"/>
<line x1="59.04" y1="275.65" x2="51.84" y2="275.65" style="stroke-width: 0.75;"/>
<line x1="59.04" y1="186.05" x2="51.84" y2="186.05" style="stroke-width: 0.75;"/>
<line x1="59.04" y1="96.45" x2="51.84" y2="96.45" style="stroke-width: 0.75;"/>
<g><text transform="translate(41.76,634.04) rotate(-90.00)" text-anchor="middle" style="font-family: DejaVu Sans;font-size: 12.00px;" textLength="26.73px" lengthAdjust="spacingAndGlyphs">0.00</text></g>
<g><text transform="translate(41.76,544.45) rotate(-90.00)" text-anchor="middle" style="font-family: DejaVu Sans;font-size: 12.00px;" textLength="26.73px" lengthAdjust="spacingAndGlyphs">0.05</text></g>
<g><text transform="translate(41.76,454.85) rotate(-90.00)" text-anchor="middle" style="font-family: DejaVu Sans;font-size: 12.00px;" textLength="26.73px" lengthAdjust="spacingAndGlyphs">0.10</text></g>
<g><text transform="translate(41.76,365.25) rotate(-90.00)" text-anchor="middle" style="font-family: DejaVu Sans;font-size: 12.00px;" textLength="26.73px" lengthAdjust="spacingAndGlyphs">0.15</text></g>
<g><text transform="translate(41.76,275.65) rotate(-90.00)" text-anchor="middle" style="font-family: DejaVu Sans;font-size: 12.00px;" textLength="26.73px" lengthAdjust="spacingAndGlyphs">0.20</text></g>
<g><text transform="translate(41.76,186.05) rotate(-90.00)" text-anchor="middle" style="font-family: DejaVu Sans;font-size: 12.00px;" textLength="26.73px" lengthAdjust="spacingAndGlyphs">0.25</text></g>
<g><text transform="translate(41.76,96.45) rotate(-90.00)" text-anchor="middle" style="font-family: DejaVu Sans;font-size: 12.00px;" textLength="26.73px" lengthAdjust="spacingAndGlyphs">0.30</text></g>
<polygon points="59.04,656.16 1198.56,656.16 1198.56,59.04 59.04,59.04" style="stroke-width: 0.75;" />
<g><text x="628.80" y="34.77" text-anchor="middle" style="font-family: DejaVu Sans;font-size: 14.40px;font-weight: bold;" textLength="464.71px" lengthAdjust="spacingAndGlyphs">Error analítico de un clasificador bayesiano multivariable</text></g>
<g><text x="628.80" y="710.88" text-anchor="middle" style="font-family: DejaVu Sans;font-size: 12.00px;" textLength="106.18px" lengthAdjust="spacingAndGlyphs">Numero variables</text></g>
<g><text transform="translate(12.96,357.60) rotate(-90.00)" text-anchor="middle" style="font-family: DejaVu Sans;font-size: 12.00px;" textLength="29.25px" lengthAdjust="spacingAndGlyphs">Error</text></g>
</g><g clip-path="url(#c3)">
<line x1="1059.65" y1="79.78" x2="1096.95" y2="79.78" style="stroke-width: 0.75;stroke: #A020F0;"/>
<g><text x="1115.61" y="84.16" style="font-family: DejaVu Sans;font-size: 12.00px;" textLength="42.62px" lengthAdjust="spacingAndGlyphs">Errores</text></g>
</g>
</svg>