<svg xmlns="http://www.w3.org/2000/svg" xmlns:xlink="http://www.w3.org/1999/xlink" class="httpgd" width="1536.00" height="912.00" viewBox="0 0 1228.80 729.60">
<defs>
  <style type='text/css'><![CDATA[
    .httpgd line, .httpgd polyline, .httpgd polygon, .httpgd path, .httpgd rect, .httpgd circle {
      fill: none;
      stroke: #000000;
      stroke-linecap: round;
      stroke-linejoin: round;
      stroke-miterlimit: 10.00;
    }
  ]]></style>
<clipPath id="c0"><rect x="0.00" y="0.00" width="1228.80" height="729.60"/></clipPath>
<clipPath id="c1"><rect x="59.04" y="59.04" width="1139.52" height="597.12"/></clipPath>
<clipPath id="c2"><rect x="0.00" y="0.00" width="1228.80" height="729.60"/></clipPath>
<clipPath id="c3"><rect x="59.04" y="59.04" width="1139.52" height="597.12"/></clipPath>
</defs>
<rect width="100%" height="100%" style="stroke: none;fill: #FFFFFF;"/>
<g clip-path="url(#c0)">
</g><g clip-path="url(#c1)">
<polyline points="101.24,370.87 112.97,377.71 124.69,401.83 136.41,372.06 148.14,356.81 159.86,352.44 171.59,350.69 183.31,379.07 195.03,364.36 206.76,389.03 218.48,375.29 230.20,380.24 241.93,363.63 253.65,364.33 265.37,385.24 277.10,385.47 288.82,376.74 300.54,376.85 312.27,362.34 323.99,356.46 335.71,381.19 347.44,355.10 359.16,377.30 370.88,392.11 382.61,370.28 394.33,368.66 406.05,373.57 417.78,367.46 429.50,380.88 441.22,367.81 452.95,369.76 464.67,378.91 476.40,372.08 488.12,373.03 499.84,366.90 511.57,371.12 523.29,371.54 535.01,374.30 546.74,364.05 558.46,365.27 570.18,371.31 581.91,376.90 593.63,368.23 605.35,375.54 617.08,366.61 628.80,370.47 640.52,373.40 652.25,378.55 663.97,366.56 675.69,381.40 687.42,360.00 699.14,371.38 710.86,374.72 722.59,369.01 734.31,366.93 746.03,357.94 757.76,362.79 769.48,363.87 781.20,364.43 792.93,365.61 804.65,376.87 816.38,368.66 828.10,366.81 839.82,371.84 851.55,375.23 863.27,356.13 874.99,372.30 886.72,372.82 898.44,369.65 910.16,370.20 921.89,368.52 933.61,368.25 945.33,372.84 957.06,376.12 968.78,373.66 980.50,369.70 992.23,367.50 1003.95,369.17 1015.67,364.01 1027.40,376.49 1039.12,368.66 1050.84,367.93 1062.57,364.81 1074.29,371.63 1086.01,374.07 1097.74,370.75 1109.46,367.74 1121.19,377.09 1132.91,375.65 1144.63,369.55 1156.36,363.02" style="stroke-width: 0.75;stroke: #A020F0;"/>
</g><g clip-path="url(#c2)">
<line x1="218.48" y1="656.16" x2="1156.36" y2="656.16" style="stroke-width: 0.75;"/>
<line x1="218.48" y1="656.16" x2="218.48" y2="663.36" style="stroke-width: 0.75;"/>
<line x1="452.95" y1="656.16" x2="452.95" y2="663.36" style="stroke-width: 0.75;"/>
<line x1="687.42" y1="656.16" x2="687.42" y2="663.36" style="stroke-width: 0.75;"/>
<line x1="921.89" y1="656.16" x2="921.89" y2="663.36" style="stroke-width: 0.75;"/>
<line x1="1156.36" y1="656.16" x2="1156.36" y2="663.36" style="stroke-width: 0.75;"/>
<g><text x="218.48" y="682.08" text-anchor="middle" style="font-family: DejaVu Sans;font-size: 12.00px;" textLength="30.56px" lengthAdjust="spacingAndGlyphs">2000</text></g>
<g><text x="452.95" y="682.08" text-anchor="middle" style="font-family: DejaVu Sans;font-size: 12.00px;" textLength="30.56px" lengthAdjust="spacingAndGlyphs">4000</text></g>
<g><text x="687.42" y="682.08" text-anchor="middle" style="font-family: DejaVu Sans;font-size: 12.00px;" textLength="30.56px" lengthAdjust="spacingAndGlyphs">6000</text></g>
<g><text x="921.89" y="682.08" text-anchor="middle" style="font-family: DejaVu Sans;font-size: 12.00px;" textLength="30.56px" lengthAdjust="spacingAndGlyphs">8000</text></g>
<g><text x="1156.36" y="682.08" text-anchor="middle" style="font-family: DejaVu Sans;font-size: 12.00px;" textLength="38.20px" lengthAdjust="spacingAndGlyphs">10000</text></g>
<line x1="59.04" y1="634.04" x2="59.04" y2="81.16" style="stroke-width: 0.75;"/>
<line x1="59.04" y1="634.04" x2="51.84" y2="634.04" style="stroke-width: 0.75;"/>
<line x1="59.04" y1="523.47" x2="51.84" y2="523.47" style="stroke-width: 0.75;"/>
<line x1="59.04" y1="412.89" x2="51.84" y2="412.89" style="stroke-width: 0.75;"/>
<line x1="59.04" y1="302.31" x2="51.84" y2="302.31" style="stroke-width: 0.75;"/>
<line x1="59.04" y1="191.73" x2="51.84" y2="191.73" style="stroke-width: 0.75;"/>
<line x1="59.04" y1="81.16" x2="51.84" y2="81.16" style="stroke-width: 0.75;"/>
<g><text transform="translate(41.76,634.04) rotate(-90.00)" text-anchor="middle" style="font-family: DejaVu Sans;font-size: 12.00px;" textLength="19.09px" lengthAdjust="spacingAndGlyphs">0.0</text></g>
<g><text transform="translate(41.76,523.47) rotate(-90.00)" text-anchor="middle" style="font-family: DejaVu Sans;font-size: 12.00px;" textLength="19.09px" lengthAdjust="spacingAndGlyphs">0.1</text></g>
<g><text transform="translate(41.76,412.89) rotate(-90.00)" text-anchor="middle" style="font-family: DejaVu Sans;font-size: 12.00px;" textLength="19.09px" lengthAdjust="spacingAndGlyphs">0.2</text></g>
<g><text transform="translate(41.76,302.31) rotate(-90.00)" text-anchor="middle" style="font-family: DejaVu Sans;font-size: 12.00px;" textLength="19.09px" lengthAdjust="spacingAndGlyphs">0.3</text></g>
<g><text transform="translate(41.76,191.73) rotate(-90.00)" text-anchor="middle" style="font-family: DejaVu Sans;font-size: 12.00px;" textLength="19.09px" lengthAdjust="spacingAndGlyphs">0.4</text></g>
<g><text transform="translate(41.76,81.16) rotate(-90.00)" text-anchor="middle" style="font-family: DejaVu Sans;font-size: 12.00px;" textLength="19.09px" lengthAdjust="spacingAndGlyphs">0.5</text></g>
<polygon points="59.04,656.16 1198.56,656.16 1198.56,59.04 59.04,59.04" style="stroke-width: 0.75;" />
<g><text x="346.44" y="33.49" style="font-family: DejaVu Sans;font-size: 14.40px;" textLength="349.69px" lengthAdjust="spacingAndGlyphs">Error experimental de un clasificador bayesiano </text></g>
<g><text x="696.13" y="33.49" style="font-family: DejaVu Sans;font-size: 14.40px;" textLength="4.57px" lengthAdjust="spacingAndGlyphs"> </text></g>
<g><text x="700.70" y="33.49" style="font-family: DejaVu Sans;font-size: 14.40px;" textLength="9.16px" lengthAdjust="spacingAndGlyphs">μ</text></g>
<g><text x="709.86" y="36.25" style="font-family: DejaVu Sans;font-size: 10.08px;" textLength="6.42px" lengthAdjust="spacingAndGlyphs">0</text></g>
<g><text x="716.27" y="33.49" style="font-family: DejaVu Sans;font-size: 14.40px;" textLength="4.57px" lengthAdjust="spacingAndGlyphs"> </text></g>
<g><text x="720.84" y="33.49" style="font-family: DejaVu Sans;font-size: 14.40px;" textLength="34.93px" lengthAdjust="spacingAndGlyphs">= 0, </text></g>
<g><text x="755.78" y="33.49" style="font-family: DejaVu Sans;font-size: 14.40px;" textLength="4.57px" lengthAdjust="spacingAndGlyphs"> </text></g>
<g><text x="760.35" y="33.49" style="font-family: DejaVu Sans;font-size: 14.40px;" textLength="9.16px" lengthAdjust="spacingAndGlyphs">μ</text></g>
<g><text x="769.51" y="36.25" style="font-family: DejaVu Sans;font-size: 10.08px;" textLength="6.42px" lengthAdjust="spacingAndGlyphs">1</text></g>
<g><text x="775.92" y="33.49" style="font-family: DejaVu Sans;font-size: 14.40px;" textLength="4.57px" lengthAdjust="spacingAndGlyphs"> </text></g>
<g><text x="780.50" y="33.49" style="font-family: DejaVu Sans;font-size: 14.40px;" textLength="43.45px" lengthAdjust="spacingAndGlyphs">= 1 y </text></g>
<g><text x="823.95" y="33.49" style="font-family: DejaVu Sans;font-size: 14.40px;" textLength="4.57px" lengthAdjust="spacingAndGlyphs"> </text></g>
<g><text x="828.52" y="33.49" style="font-family: DejaVu Sans;font-size: 14.40px;" textLength="9.12px" lengthAdjust="spacingAndGlyphs">σ</text></g>
<g><text x="837.64" y="36.25" style="font-family: DejaVu Sans;font-size: 10.08px;" textLength="6.42px" lengthAdjust="spacingAndGlyphs">0</text></g>
<g><text x="844.06" y="33.49" style="font-family: DejaVu Sans;font-size: 14.40px;" textLength="4.57px" lengthAdjust="spacingAndGlyphs"> </text></g>
<g><text x="848.63" y="33.49" style="font-family: DejaVu Sans;font-size: 14.40px;" textLength="12.06px" lengthAdjust="spacingAndGlyphs">=</text></g>
<g><text x="860.69" y="33.49" style="font-family: DejaVu Sans;font-size: 14.40px;" textLength="4.57px" lengthAdjust="spacingAndGlyphs"> </text></g>
<g><text x="865.26" y="33.49" style="font-family: DejaVu Sans;font-size: 14.40px;" textLength="9.12px" lengthAdjust="spacingAndGlyphs">σ</text></g>
<g><text x="874.38" y="36.25" style="font-family: DejaVu Sans;font-size: 10.08px;" textLength="6.42px" lengthAdjust="spacingAndGlyphs">1</text></g>
<g><text x="880.80" y="33.49" style="font-family: DejaVu Sans;font-size: 14.40px;" textLength="4.57px" lengthAdjust="spacingAndGlyphs"> </text></g>
<g><text x="885.37" y="33.49" style="font-family: DejaVu Sans;font-size: 14.40px;" textLength="25.79px" lengthAdjust="spacingAndGlyphs">= 1</text></g>
<g><text x="628.80" y="710.88" text-anchor="middle" style="font-family: DejaVu Sans;font-size: 12.00px;" textLength="133.80px" lengthAdjust="spacingAndGlyphs">Tamaño de la muestra</text></g>
<g><text transform="translate(12.96,357.60) rotate(-90.00)" text-anchor="middle" style="font-family: DejaVu Sans;font-size: 12.00px;" textLength="29.25px" lengthAdjust="spacingAndGlyphs">Error</text></g>
</g><g clip-path="url(#c3)">
<line x1="59.04" y1="370.84" x2="1198.56" y2="370.84" style="stroke-width: 0.75;stroke: #FF0000; stroke-dasharray: 4.00, 4.00;"/>
<g><text x="-8.79" y="395.87" style="font-family: DejaVu Sans;font-size: 12.00px;fill: #FF0000;" textLength="34.37px" lengthAdjust="spacingAndGlyphs">0.238</text></g>
<line x1="975.96" y1="79.78" x2="1013.27" y2="79.78" style="stroke-width: 0.75;stroke: #A020F0;"/>
<line x1="975.96" y1="100.53" x2="1013.27" y2="100.53" style="stroke-width: 0.75;stroke: #FF0000; stroke-dasharray: 4.00, 4.00;"/>
<g><text x="1031.92" y="84.16" style="font-family: DejaVu Sans;font-size: 12.00px;" textLength="42.62px" lengthAdjust="spacingAndGlyphs">Errores</text></g>
<g><text x="1031.92" y="104.90" style="font-family: DejaVu Sans;font-size: 12.00px;" textLength="91.07px" lengthAdjust="spacingAndGlyphs">Media del error</text></g>
</g>
</svg>