<svg xmlns="http://www.w3.org/2000/svg" xmlns:xlink="http://www.w3.org/1999/xlink" class="httpgd" width="1536.00" height="912.00" viewBox="0 0 1228.80 729.60">
<defs>
  <style type='text/css'><![CDATA[
    .httpgd line, .httpgd polyline, .httpgd polygon, .httpgd path, .httpgd rect, .httpgd circle {
      fill: none;
      stroke: #000000;
      stroke-linecap: round;
      stroke-linejoin: round;
      stroke-miterlimit: 10.00;
    }
  ]]></style>
<clipPath id="c0"><rect x="0.00" y="0.00" width="1228.80" height="729.60"/></clipPath>
<clipPath id="c1"><rect x="59.04" y="59.04" width="1139.52" height="597.12"/></clipPath>
<clipPath id="c2"><rect x="0.00" y="0.00" width="1228.80" height="729.60"/></clipPath>
<clipPath id="c3"><rect x="59.04" y="59.04" width="1139.52" height="597.12"/></clipPath>
<clipPath id="c4"><rect x="0.00" y="0.00" width="1228.80" height="729.60"/></clipPath>
<clipPath id="c5"><rect x="59.04" y="59.04" width="1139.52" height="597.12"/></clipPath>
</defs>
<rect width="100%" height="100%" style="stroke: none;fill: #FFFFFF;"/>
<g clip-path="url(#c0)">
</g><g clip-path="url(#c1)">
<polyline points="101.24,633.88 111.90,633.82 122.56,633.73 133.22,633.62 143.88,633.48 154.53,633.28 165.19,633.03 175.85,632.70 186.51,632.27 197.16,631.73 207.82,631.04 218.48,630.17 229.14,629.07 239.79,627.72 250.45,626.04 261.11,623.98 271.77,621.48 282.43,618.46 293.08,614.84 303.74,610.53 314.40,605.45 325.06,599.48 335.71,592.55 346.37,584.55 357.03,575.39 367.69,564.99 378.34,553.27 389.00,540.18 399.66,525.68 410.32,509.75 420.98,492.41 431.63,473.71 442.29,453.71 452.95,432.53 463.61,410.34 474.26,387.32 484.92,363.70 495.58,339.75 506.24,315.76 516.89,292.06 527.55,268.98 538.21,246.89 548.87,226.12 559.53,207.05 570.18,189.98 580.84,175.25 591.50,163.10 602.16,153.79 612.81,147.47 623.47,144.29 634.13,144.29 644.79,147.47 655.44,153.79 666.10,163.10 676.76,175.25 687.42,189.98 698.07,207.05 708.73,226.12 719.39,246.89 730.05,268.98 740.71,292.06 751.36,315.76 762.02,339.75 772.68,363.70 783.34,387.32 793.99,410.34 804.65,432.53 815.31,453.71 825.97,473.71 836.62,492.41 847.28,509.75 857.94,525.68 868.60,540.18 879.26,553.27 889.91,564.99 900.57,575.39 911.23,584.55 921.89,592.55 932.54,599.48 943.20,605.45 953.86,610.53 964.52,614.84 975.17,618.46 985.83,621.48 996.49,623.98 1007.15,626.04 1017.81,627.72 1028.46,629.07 1039.12,630.17 1049.78,631.04 1060.44,631.73 1071.09,632.27 1081.75,632.70 1092.41,633.03 1103.07,633.28 1113.72,633.48 1124.38,633.62 1135.04,633.73 1145.70,633.82 1156.36,633.88" style="stroke-width: 1.50;stroke: #FF0000;"/>
</g><g clip-path="url(#c2)">
<g><text x="628.80" y="34.77" text-anchor="middle" style="font-family: DejaVu Sans;font-size: 14.40px;font-weight: bold;" textLength="170.82px" lengthAdjust="spacingAndGlyphs">Error de clasificación</text></g>
<g><text x="628.80" y="710.88" text-anchor="middle" style="font-family: DejaVu Sans;font-size: 12.00px;" textLength="7.11px" lengthAdjust="spacingAndGlyphs">x</text></g>
<g><text transform="translate(12.96,357.60) rotate(-90.00)" text-anchor="middle" style="font-family: DejaVu Sans;font-size: 12.00px;" textLength="7.11px" lengthAdjust="spacingAndGlyphs">y</text></g>
</g><g clip-path="url(#c3)">
<polyline points="101.24,634.04 111.90,634.04 122.56,634.04 133.22,634.04 143.88,634.04 154.53,634.03 165.19,634.03 175.85,634.02 186.51,634.01 197.16,633.99 207.82,633.97 218.48,633.94 229.14,633.90 239.79,633.84 250.45,633.77 261.11,633.67 271.77,633.54 282.43,633.36 293.08,633.13 303.74,632.83 314.40,632.45 325.06,631.95 335.71,631.32 346.37,630.52 357.03,629.51 367.69,628.26 378.34,626.71 389.00,624.80 399.66,622.48 410.32,619.66 420.98,616.28 431.63,612.24 442.29,607.45 452.95,601.83 463.61,595.27 474.26,587.68 484.92,578.97 495.58,569.04 506.24,557.82 516.89,545.25 527.55,531.29 538.21,515.89 548.87,499.08 559.53,480.88 570.18,461.35 580.84,440.60 591.50,418.77 602.16,396.04 612.81,372.61 623.47,348.75 634.13,324.74 644.79,300.89 655.44,277.54 666.10,255.04 676.76,233.73 687.42,213.98 698.07,196.13 708.73,180.48 719.39,167.34 730.05,156.94 740.71,149.48 751.36,145.11 762.02,143.91 772.68,145.91 783.34,151.06 793.99,159.27 804.65,170.38 815.31,184.17 825.97,200.39 836.62,218.75 847.28,238.93 857.94,260.56 868.60,283.31 879.26,306.82 889.91,330.74 900.57,354.75 911.23,378.52 921.89,401.79 932.54,424.32 943.20,445.90 953.86,466.35 964.52,485.56 975.17,503.42 985.83,519.88 996.49,534.91 1007.15,548.53 1017.81,560.75 1028.46,571.64 1039.12,581.25 1049.78,589.68 1060.44,597.00 1071.09,603.32 1081.75,608.72 1092.41,613.31 1103.07,617.18 1113.72,620.42 1124.38,623.10 1135.04,625.32 1145.70,627.13 1156.36,628.60" style="stroke-width: 1.50;stroke: #0000FF;"/>
<circle cx="694.74" cy="201.48" r="2.70" style="stroke-width: 0.75;stroke: #FF0000;fill: #FF0000;"/>
<polygon points="694.74,201.48 699.41,209.33 704.07,217.55 708.73,226.12 713.40,235.02 718.06,244.21 722.72,253.67 727.38,263.35 732.05,273.25 736.71,283.31 741.37,293.53 746.03,303.86 750.70,314.27 755.36,324.74 760.02,335.25 764.69,345.76 769.35,356.24 774.01,366.68 778.67,377.05 783.34,387.32 788.00,397.48 792.66,407.51 797.32,417.38 801.99,427.08 806.65,436.59 811.31,445.90 815.98,454.99 820.64,463.86 825.30,472.49 829.96,480.88 834.63,489.01 839.29,496.88 843.95,504.49 848.61,511.82 853.28,518.89 857.94,525.68 862.60,532.20 867.27,538.45 871.93,544.42 876.59,550.13 881.25,555.57 885.92,560.75 890.58,565.68 895.24,570.35 899.90,574.78 904.57,578.97 909.23,582.92 913.89,586.65 918.56,590.17 923.22,593.47 927.88,596.57 932.54,599.48 937.21,602.20 941.87,604.75 946.53,607.12 951.20,609.34 955.86,611.40 960.52,613.31 965.18,615.09 969.85,616.73 974.51,618.25 979.17,619.66 983.83,620.96 988.50,622.15 993.16,623.25 997.82,624.26 1002.49,625.19 1007.15,626.04 1011.81,626.82 1016.47,627.53 1021.14,628.17 1025.80,628.76 1030.46,629.30 1035.12,629.79 1039.79,630.23 1044.45,630.63 1049.11,630.99 1053.78,631.32 1058.44,631.61 1063.10,631.88 1067.76,632.12 1072.43,632.33 1077.09,632.53 1081.75,632.70 1086.41,632.85 1091.08,632.99 1095.74,633.11 1100.40,633.22 1105.07,633.32 1109.73,633.41 1114.39,633.49 1119.05,633.55 1123.72,633.62 1128.38,633.67 1133.04,633.72 1137.70,633.76 1142.37,633.79 1147.03,633.83 1151.69,633.86 1156.36,633.88 1156.36,634.04 1151.69,634.04 1147.03,634.04 1142.37,634.04 1137.70,634.04 1133.04,634.04 1128.38,634.04 1123.72,634.04 1119.05,634.04 1114.39,634.04 1109.73,634.04 1105.07,634.04 1100.40,634.04 1095.74,634.04 1091.08,634.04 1086.41,634.04 1081.75,634.04 1077.09,634.04 1072.43,634.04 1067.76,634.04 1063.10,634.04 1058.44,634.04 1053.78,634.04 1049.11,634.04 1044.45,634.04 1039.79,634.04 1035.12,634.04 1030.46,634.04 1025.80,634.04 1021.14,634.04 1016.47,634.04 1011.81,634.04 1007.15,634.04 1002.49,634.04 997.82,634.04 993.16,634.04 988.50,634.04 983.83,634.04 979.17,634.04 974.51,634.04 969.85,634.04 965.18,634.04 960.52,634.04 955.86,634.04 951.20,634.04 946.53,634.04 941.87,634.04 937.21,634.04 932.54,634.04 927.88,634.04 923.22,634.04 918.56,634.04 913.89,634.04 909.23,634.04 904.57,634.04 899.90,634.04 895.24,634.04 890.58,634.04 885.92,634.04 881.25,634.04 876.59,634.04 871.93,634.04 867.27,634.04 862.60,634.04 857.94,634.04 853.28,634.04 848.61,634.04 843.95,634.04 839.29,634.04 834.63,634.04 829.96,634.04 825.30,634.04 820.64,634.04 815.98,634.04 811.31,634.04 806.65,634.04 801.99,634.04 797.32,634.04 792.66,634.04 788.00,634.04 783.34,634.04 778.67,634.04 774.01,634.04 769.35,634.04 764.69,634.04 760.02,634.04 755.36,634.04 750.70,634.04 746.03,634.04 741.37,634.04 736.71,634.04 732.05,634.04 727.38,634.04 722.72,634.04 718.06,634.04 713.40,634.04 708.73,634.04 704.07,634.04 699.41,634.04 694.74,634.04" style="stroke-width: 0.75;stroke: none;fill: #FF0000;fill-opacity: 0.50;" />
</g><g clip-path="url(#c4)">
<line x1="101.24" y1="656.16" x2="1156.36" y2="656.16" style="stroke-width: 0.75;"/>
<line x1="101.24" y1="656.16" x2="101.24" y2="663.36" style="stroke-width: 0.75;"/>
<line x1="167.19" y1="656.16" x2="167.19" y2="663.36" style="stroke-width: 0.75;"/>
<line x1="233.13" y1="656.16" x2="233.13" y2="663.36" style="stroke-width: 0.75;"/>
<line x1="299.08" y1="656.16" x2="299.08" y2="663.36" style="stroke-width: 0.75;"/>
<line x1="365.02" y1="656.16" x2="365.02" y2="663.36" style="stroke-width: 0.75;"/>
<line x1="430.97" y1="656.16" x2="430.97" y2="663.36" style="stroke-width: 0.75;"/>
<line x1="496.91" y1="656.16" x2="496.91" y2="663.36" style="stroke-width: 0.75;"/>
<line x1="562.86" y1="656.16" x2="562.86" y2="663.36" style="stroke-width: 0.75;"/>
<line x1="628.80" y1="656.16" x2="628.80" y2="663.36" style="stroke-width: 0.75;"/>
<line x1="694.74" y1="656.16" x2="694.74" y2="663.36" style="stroke-width: 0.75;"/>
<line x1="760.69" y1="656.16" x2="760.69" y2="663.36" style="stroke-width: 0.75;"/>
<line x1="826.63" y1="656.16" x2="826.63" y2="663.36" style="stroke-width: 0.75;"/>
<line x1="892.58" y1="656.16" x2="892.58" y2="663.36" style="stroke-width: 0.75;"/>
<line x1="958.52" y1="656.16" x2="958.52" y2="663.36" style="stroke-width: 0.75;"/>
<line x1="1024.47" y1="656.16" x2="1024.47" y2="663.36" style="stroke-width: 0.75;"/>
<line x1="1090.41" y1="656.16" x2="1090.41" y2="663.36" style="stroke-width: 0.75;"/>
<line x1="1156.36" y1="656.16" x2="1156.36" y2="663.36" style="stroke-width: 0.75;"/>
<g><text x="101.24" y="682.08" text-anchor="middle" style="font-family: DejaVu Sans;font-size: 12.00px;" textLength="23.43px" lengthAdjust="spacingAndGlyphs">-4.0</text></g>
<g><text x="167.19" y="682.08" text-anchor="middle" style="font-family: DejaVu Sans;font-size: 12.00px;" textLength="23.43px" lengthAdjust="spacingAndGlyphs">-3.5</text></g>
<g><text x="233.13" y="682.08" text-anchor="middle" style="font-family: DejaVu Sans;font-size: 12.00px;" textLength="23.43px" lengthAdjust="spacingAndGlyphs">-3.0</text></g>
<g><text x="299.08" y="682.08" text-anchor="middle" style="font-family: DejaVu Sans;font-size: 12.00px;" textLength="23.43px" lengthAdjust="spacingAndGlyphs">-2.5</text></g>
<g><text x="365.02" y="682.08" text-anchor="middle" style="font-family: DejaVu Sans;font-size: 12.00px;" textLength="23.43px" lengthAdjust="spacingAndGlyphs">-2.0</text></g>
<g><text x="430.97" y="682.08" text-anchor="middle" style="font-family: DejaVu Sans;font-size: 12.00px;" textLength="23.43px" lengthAdjust="spacingAndGlyphs">-1.5</text></g>
<g><text x="496.91" y="682.08" text-anchor="middle" style="font-family: DejaVu Sans;font-size: 12.00px;" textLength="23.43px" lengthAdjust="spacingAndGlyphs">-1.0</text></g>
<g><text x="562.86" y="682.08" text-anchor="middle" style="font-family: DejaVu Sans;font-size: 12.00px;" textLength="23.43px" lengthAdjust="spacingAndGlyphs">-0.5</text></g>
<g><text x="628.80" y="682.08" text-anchor="middle" style="font-family: DejaVu Sans;font-size: 12.00px;" textLength="19.09px" lengthAdjust="spacingAndGlyphs">0.0</text></g>
<g><text x="694.74" y="682.08" text-anchor="middle" style="font-family: DejaVu Sans;font-size: 12.00px;" textLength="19.09px" lengthAdjust="spacingAndGlyphs">0.5</text></g>
<g><text x="760.69" y="682.08" text-anchor="middle" style="font-family: DejaVu Sans;font-size: 12.00px;" textLength="19.09px" lengthAdjust="spacingAndGlyphs">1.0</text></g>
<g><text x="826.63" y="682.08" text-anchor="middle" style="font-family: DejaVu Sans;font-size: 12.00px;" textLength="19.09px" lengthAdjust="spacingAndGlyphs">1.5</text></g>
<g><text x="892.58" y="682.08" text-anchor="middle" style="font-family: DejaVu Sans;font-size: 12.00px;" textLength="19.09px" lengthAdjust="spacingAndGlyphs">2.0</text></g>
<g><text x="958.52" y="682.08" text-anchor="middle" style="font-family: DejaVu Sans;font-size: 12.00px;" textLength="19.09px" lengthAdjust="spacingAndGlyphs">2.5</text></g>
<g><text x="1024.47" y="682.08" text-anchor="middle" style="font-family: DejaVu Sans;font-size: 12.00px;" textLength="19.09px" lengthAdjust="spacingAndGlyphs">3.0</text></g>
<g><text x="1090.41" y="682.08" text-anchor="middle" style="font-family: DejaVu Sans;font-size: 12.00px;" textLength="19.09px" lengthAdjust="spacingAndGlyphs">3.5</text></g>
<g><text x="1156.36" y="682.08" text-anchor="middle" style="font-family: DejaVu Sans;font-size: 12.00px;" textLength="19.09px" lengthAdjust="spacingAndGlyphs">4.0</text></g>
<line x1="59.04" y1="634.04" x2="59.04" y2="81.16" style="stroke-width: 0.75;"/>
<line x1="59.04" y1="634.04" x2="51.84" y2="634.04" style="stroke-width: 0.75;"/>
<line x1="59.04" y1="572.61" x2="51.84" y2="572.61" style="stroke-width: 0.75;"/>
<line x1="59.04" y1="511.18" x2="51.84" y2="511.18" style="stroke-width: 0.75;"/>
<line x1="59.04" y1="449.75" x2="51.84" y2="449.75" style="stroke-width: 0.75;"/>
<line x1="59.04" y1="388.32" x2="51.84" y2="388.32" style="stroke-width: 0.75;"/>
<line x1="59.04" y1="326.88" x2="51.84" y2="326.88" style="stroke-width: 0.75;"/>
<line x1="59.04" y1="265.45" x2="51.84" y2="265.45" style="stroke-width: 0.75;"/>
<line x1="59.04" y1="204.02" x2="51.84" y2="204.02" style="stroke-width: 0.75;"/>
<line x1="59.04" y1="142.59" x2="51.84" y2="142.59" style="stroke-width: 0.75;"/>
<line x1="59.04" y1="81.16" x2="51.84" y2="81.16" style="stroke-width: 0.75;"/>
<g><text x="44.64" y="638.42" text-anchor="end" style="font-family: DejaVu Sans;font-size: 12.00px;" textLength="26.73px" lengthAdjust="spacingAndGlyphs">0.00</text></g>
<g><text x="44.64" y="576.99" text-anchor="end" style="font-family: DejaVu Sans;font-size: 12.00px;" textLength="26.73px" lengthAdjust="spacingAndGlyphs">0.05</text></g>
<g><text x="44.64" y="515.55" text-anchor="end" style="font-family: DejaVu Sans;font-size: 12.00px;" textLength="26.73px" lengthAdjust="spacingAndGlyphs">0.10</text></g>
<g><text x="44.64" y="454.12" text-anchor="end" style="font-family: DejaVu Sans;font-size: 12.00px;" textLength="26.73px" lengthAdjust="spacingAndGlyphs">0.15</text></g>
<g><text x="44.64" y="392.69" text-anchor="end" style="font-family: DejaVu Sans;font-size: 12.00px;" textLength="26.73px" lengthAdjust="spacingAndGlyphs">0.20</text></g>
<g><text x="44.64" y="331.26" text-anchor="end" style="font-family: DejaVu Sans;font-size: 12.00px;" textLength="26.73px" lengthAdjust="spacingAndGlyphs">0.25</text></g>
<g><text x="44.64" y="269.83" text-anchor="end" style="font-family: DejaVu Sans;font-size: 12.00px;" textLength="26.73px" lengthAdjust="spacingAndGlyphs">0.30</text></g>
<g><text x="44.64" y="208.39" text-anchor="end" style="font-family: DejaVu Sans;font-size: 12.00px;" textLength="26.73px" lengthAdjust="spacingAndGlyphs">0.35</text></g>
<g><text x="44.64" y="146.96" text-anchor="end" style="font-family: DejaVu Sans;font-size: 12.00px;" textLength="26.73px" lengthAdjust="spacingAndGlyphs">0.40</text></g>
<g><text x="44.64" y="85.53" text-anchor="end" style="font-family: DejaVu Sans;font-size: 12.00px;" textLength="26.73px" lengthAdjust="spacingAndGlyphs">0.45</text></g>
</g><g clip-path="url(#c5)">
<rect x="1008.54" y="59.04" width="190.02" height="82.97" style="stroke-width: 0.75;fill: #FFFFFF;"/>
<line x1="1014.14" y1="79.78" x2="1051.45" y2="79.78" style="stroke-width: 1.50;stroke: #FF0000;"/>
<line x1="1014.14" y1="100.53" x2="1051.45" y2="100.53" style="stroke-width: 1.50;stroke: #0000FF;"/>
<line x1="1014.14" y1="121.27" x2="1051.45" y2="121.27" style="stroke-width: 1.50;stroke: #FF0000;stroke-opacity: 0.50;"/>
<rect x="1030.40" y="118.88" width="4.79" height="4.79" style="stroke-width: 1.50;stroke: #FF0000;stroke-opacity: 0.50;fill: #FF0000;fill-opacity: 0.50;"/>
<g><text x="1070.10" y="84.16" style="font-family: DejaVu Sans;font-size: 12.00px;" textLength="68.97px" lengthAdjust="spacingAndGlyphs">F1 (N(0, 1))</text></g>
<g><text x="1070.10" y="104.90" style="font-family: DejaVu Sans;font-size: 12.00px;" textLength="68.97px" lengthAdjust="spacingAndGlyphs">F2 (N(1, 1))</text></g>
<g><text x="1070.10" y="125.64" style="font-family: DejaVu Sans;font-size: 12.00px;" textLength="29.25px" lengthAdjust="spacingAndGlyphs">Error</text></g>
</g>
</svg>